<svg width="1312" height="1296" viewBox="0 0 1312 1296" fill="none" xmlns="http://www.w3.org/2000/svg">
<g clip-path="url(#clip0_109_3056)">
<rect width="1312" height="1296" fill="#D9D9D9"/>
<path d="M653 120L826.205 220V420L653 520L479.795 420V220L653 120Z" fill="white"/>
<mask id="mask0_109_3056" style="mask-type:alpha" maskUnits="userSpaceOnUse" x="479" y="120" width="348" height="400">
<path d="M653 120L826.205 220V420L653 520L479.795 420V220L653 120Z" fill="#010101"/>
</mask>
<g mask="url(#mask0_109_3056)">
<line x1="457" y1="158.75" x2="907" y2="158.75" stroke="#103164" stroke-opacity="0.29" stroke-width="7"/>
<line x1="457" y1="215" x2="907" y2="215" stroke="#103164" stroke-opacity="0.29" stroke-width="7"/>
<line x1="457" y1="271.25" x2="907" y2="271.25" stroke="#103164" stroke-opacity="0.29" stroke-width="7"/>
<line x1="457" y1="327.5" x2="907" y2="327.5" stroke="#103164" stroke-opacity="0.29" stroke-width="7"/>
<line x1="457" y1="383.75" x2="907" y2="383.75" stroke="#103164" stroke-opacity="0.29" stroke-width="7"/>
<line x1="457" y1="440" x2="907" y2="440" stroke="#103164" stroke-opacity="0.29" stroke-width="7"/>
<line x1="457" y1="496.25" x2="907" y2="496.25" stroke="#103164" stroke-opacity="0.29" stroke-width="7"/>
<line x1="515.625" y1="106" x2="515.625" y2="556" stroke="#103164" stroke-opacity="0.29" stroke-width="7"/>
<line x1="567.125" y1="556" x2="567.125" y2="106" stroke="#103164" stroke-opacity="0.29" stroke-width="7"/>
<line x1="623.375" y1="556" x2="623.375" y2="106" stroke="#103164" stroke-opacity="0.29" stroke-width="7"/>
<line x1="679.625" y1="556" x2="679.625" y2="106" stroke="#103164" stroke-opacity="0.29" stroke-width="7"/>
<line x1="735.875" y1="556" x2="735.875" y2="106" stroke="#103164" stroke-opacity="0.29" stroke-width="7"/>
<line x1="792.125" y1="556" x2="792.125" y2="106" stroke="#103164" stroke-opacity="0.29" stroke-width="7"/>
<path d="M653 120L826.205 220V420L653 520L479.795 420V220L653 120Z" fill="url(#paint0_radial_109_3056)"/>
</g>
<g filter="url(#filter0_d_109_3056)">
<path d="M547.32 340.72C544.76 340.72 542.307 340.267 539.96 339.36C537.667 338.453 535.72 337.12 534.12 335.36L537.96 330.32C539.453 331.76 540.92 332.827 542.36 333.52C543.853 334.16 545.267 334.48 546.6 334.48C547.613 334.48 548.52 334.373 549.32 334.16C550.173 333.893 550.84 333.493 551.32 332.96C551.853 332.427 552.12 331.707 552.12 330.8C552.12 329.733 551.747 328.907 551 328.32C550.253 327.68 549.293 327.173 548.12 326.8C546.947 326.373 545.72 325.973 544.44 325.6C541.507 324.693 539.32 323.36 537.88 321.6C536.44 319.84 535.72 317.813 535.72 315.52C535.72 313.76 536.173 312.08 537.08 310.48C537.987 308.827 539.373 307.467 541.24 306.4C543.107 305.333 545.453 304.8 548.28 304.8C550.84 304.8 553.053 305.093 554.92 305.68C556.84 306.213 558.627 307.147 560.28 308.48L556.84 313.84C555.88 312.933 554.733 312.24 553.4 311.76C552.12 311.227 550.947 310.933 549.88 310.88C548.92 310.827 548.067 310.96 547.32 311.28C546.573 311.547 545.96 311.947 545.48 312.48C545.053 313.013 544.84 313.627 544.84 314.32C544.787 315.387 545.133 316.24 545.88 316.88C546.68 317.52 547.693 318.027 548.92 318.4C550.147 318.773 551.373 319.173 552.6 319.6C554.253 320.08 555.72 320.747 557 321.6C558.28 322.453 559.267 323.493 559.96 324.72C560.707 325.893 561.08 327.36 561.08 329.12C561.08 331.147 560.573 333.067 559.56 334.88C558.547 336.64 557.027 338.053 555 339.12C552.973 340.187 550.413 340.72 547.32 340.72ZM598.988 336.88C597.495 338.107 595.655 339.093 593.468 339.84C591.335 340.533 589.175 340.88 586.988 340.88C583.255 340.88 579.975 340.16 577.148 338.72C574.321 337.227 572.108 335.173 570.508 332.56C568.961 329.893 568.188 326.72 568.188 323.04C568.188 319.36 569.015 316.187 570.668 313.52C572.375 310.853 574.588 308.827 577.308 307.44C580.081 306 583.015 305.28 586.108 305.28C588.935 305.28 591.441 305.68 593.628 306.48C595.815 307.227 597.708 308.267 599.308 309.6L594.828 315.44C593.975 314.747 592.855 314.107 591.468 313.52C590.135 312.88 588.615 312.56 586.908 312.56C585.095 312.56 583.441 313.013 581.948 313.92C580.508 314.827 579.335 316.08 578.428 317.68C577.575 319.227 577.148 321.013 577.148 323.04C577.148 324.96 577.601 326.72 578.508 328.32C579.415 329.92 580.668 331.2 582.268 332.16C583.868 333.067 585.708 333.52 587.788 333.52C589.121 333.52 590.348 333.333 591.468 332.96C592.641 332.533 593.655 331.973 594.508 331.28L598.988 336.88ZM605.376 322.72C605.376 319.307 606.176 316.24 607.776 313.52C609.376 310.747 611.616 308.587 614.496 307.04C617.429 305.44 620.736 304.64 624.416 304.64C628.202 304.64 631.482 305.44 634.256 307.04C637.082 308.587 639.269 310.747 640.816 313.52C642.362 316.24 643.136 319.307 643.136 322.72C643.136 326.133 642.362 329.227 640.816 332C639.269 334.72 637.082 336.88 634.256 338.48C631.482 340.08 628.176 340.88 624.336 340.88C620.709 340.88 617.456 340.16 614.576 338.72C611.696 337.227 609.429 335.12 607.776 332.4C606.176 329.68 605.376 326.453 605.376 322.72ZM614.416 322.8C614.416 324.773 614.842 326.587 615.696 328.24C616.549 329.84 617.722 331.12 619.216 332.08C620.709 333.04 622.362 333.52 624.176 333.52C626.149 333.52 627.856 333.04 629.296 332.08C630.789 331.12 631.936 329.84 632.736 328.24C633.589 326.587 634.016 324.773 634.016 322.8C634.016 320.773 633.589 318.96 632.736 317.36C631.936 315.707 630.789 314.4 629.296 313.44C627.856 312.48 626.149 312 624.176 312C622.309 312 620.629 312.507 619.136 313.52C617.696 314.48 616.549 315.76 615.696 317.36C614.842 318.96 614.416 320.773 614.416 322.8ZM663.431 341.44C660.337 341.44 657.777 340.507 655.751 338.64C653.724 336.72 652.657 334.267 652.551 331.28V306.16H661.511V328.08C661.617 329.733 662.097 331.093 662.951 332.16C663.804 333.227 665.164 333.76 667.031 333.76C668.791 333.76 670.364 333.227 671.751 332.16C673.137 331.04 674.204 329.52 674.951 327.6C675.751 325.68 676.151 323.52 676.151 321.12V306.16H685.111V340H677.031L676.311 332.56L676.551 333.76C675.857 335.2 674.871 336.533 673.591 337.76C672.311 338.933 670.791 339.84 669.031 340.48C667.324 341.12 665.457 341.44 663.431 341.44ZM700.673 291.28H709.713V306.16H718.513V313.2H709.713V340H700.673V313.2H694.913V306.16H700.673V291.28ZM745.556 281.76C748.756 281.76 751.69 282.187 754.356 283.04C757.023 283.84 759.29 285.04 761.156 286.64C763.023 288.24 764.463 290.213 765.476 292.56C766.543 294.853 767.076 297.493 767.076 300.48C767.076 302.773 766.73 305.067 766.036 307.36C765.343 309.653 764.196 311.733 762.596 313.6C761.05 315.467 758.996 316.96 756.436 318.08C753.876 319.2 750.703 319.76 746.916 319.76H738.516V340H729.156V281.76H745.556ZM746.836 310.8C748.916 310.8 750.65 310.48 752.036 309.84C753.423 309.147 754.49 308.293 755.236 307.28C756.036 306.267 756.596 305.2 756.916 304.08C757.29 302.907 757.476 301.813 757.476 300.8C757.476 299.84 757.316 298.8 756.996 297.68C756.676 296.507 756.143 295.413 755.396 294.4C754.65 293.333 753.583 292.453 752.196 291.76C750.863 291.067 749.183 290.72 747.156 290.72H738.516V310.8H746.836ZM756.916 316.32L771.796 340H760.996L745.796 316.56L756.916 316.32Z" fill="white"/>
</g>
<path d="M653 775L826.205 875V1075L653 1175L479.795 1075V875L653 775Z" fill="white"/>
<mask id="mask1_109_3056" style="mask-type:alpha" maskUnits="userSpaceOnUse" x="479" y="775" width="348" height="400">
<path d="M653 775L826.205 875V1075L653 1175L479.795 1075V875L653 775Z" fill="#010101"/>
</mask>
<g mask="url(#mask1_109_3056)">
<line x1="457" y1="813.75" x2="907" y2="813.75" stroke="#103164" stroke-opacity="0.29" stroke-width="7"/>
<line x1="457" y1="870" x2="907" y2="870" stroke="#103164" stroke-opacity="0.29" stroke-width="7"/>
<line x1="457" y1="926.25" x2="907" y2="926.25" stroke="#103164" stroke-opacity="0.29" stroke-width="7"/>
<line x1="457" y1="982.5" x2="907" y2="982.5" stroke="#103164" stroke-opacity="0.29" stroke-width="7"/>
<line x1="457" y1="1038.75" x2="907" y2="1038.75" stroke="#103164" stroke-opacity="0.29" stroke-width="7"/>
<line x1="457" y1="1095" x2="907" y2="1095" stroke="#103164" stroke-opacity="0.29" stroke-width="7"/>
<line x1="457" y1="1151.25" x2="907" y2="1151.25" stroke="#103164" stroke-opacity="0.29" stroke-width="7"/>
<line x1="515.625" y1="761" x2="515.625" y2="1211" stroke="#103164" stroke-opacity="0.29" stroke-width="7"/>
<line x1="567.125" y1="1211" x2="567.125" y2="761" stroke="#103164" stroke-opacity="0.29" stroke-width="7"/>
<line x1="623.375" y1="1211" x2="623.375" y2="761" stroke="#103164" stroke-opacity="0.29" stroke-width="7"/>
<line x1="679.625" y1="1211" x2="679.625" y2="761" stroke="#103164" stroke-opacity="0.29" stroke-width="7"/>
<line x1="735.875" y1="1211" x2="735.875" y2="761" stroke="#103164" stroke-opacity="0.29" stroke-width="7"/>
<line x1="792.125" y1="1211" x2="792.125" y2="761" stroke="#103164" stroke-opacity="0.29" stroke-width="7"/>
<path d="M653 775L826.205 875V1075L653 1175L479.795 1075V875L653 775Z" fill="url(#paint1_radial_109_3056)"/>
</g>
<g filter="url(#filter1_d_109_3056)">
<path d="M567.32 995C570.627 991.64 573.827 988.387 576.92 985.24C580.013 982.093 582.787 979.053 585.24 976.12C587.693 973.133 589.613 970.28 591 967.56C592.44 964.787 593.16 962.093 593.16 959.48C593.16 957.987 592.92 956.68 592.44 955.56C591.96 954.44 591.293 953.507 590.44 952.76C589.587 952.013 588.6 951.453 587.48 951.08C586.413 950.707 585.24 950.52 583.96 950.52C582.413 950.52 581.08 950.76 579.96 951.24C578.84 951.72 577.933 952.36 577.24 953.16C576.547 953.907 576.013 954.733 575.64 955.64C575.267 956.493 575.08 957.373 575.08 958.28C575.08 960.04 575.347 961.613 575.88 963C576.467 964.333 577.24 965.507 578.2 966.52L572.52 971.72C571.133 970.973 569.96 969.8 569 968.2C568.04 966.6 567.293 964.92 566.76 963.16C566.28 961.4 566.04 959.853 566.04 958.52C566.04 955.587 566.787 952.84 568.28 950.28C569.827 947.72 572.04 945.64 574.92 944.04C577.853 942.387 581.4 941.56 585.56 941.56C589.027 941.56 592.04 942.36 594.6 943.96C597.213 945.507 599.24 947.587 600.68 950.2C602.12 952.813 602.84 955.64 602.84 958.68C602.84 961.24 602.36 963.747 601.4 966.2C600.493 968.6 599.24 971 597.64 973.4C596.04 975.747 594.253 978.067 592.28 980.36C590.36 982.653 588.413 984.973 586.44 987.32L582.28 986.04H604.12V995H567.32ZM632.806 995.16C629.606 995.16 626.646 994.6 623.926 993.48C621.259 992.307 618.912 990.573 616.886 988.28C614.912 985.987 613.366 983.187 612.246 979.88C611.126 976.52 610.566 972.68 610.566 968.36C610.566 963.667 611.099 959.64 612.166 956.28C613.286 952.867 614.806 950.067 616.726 947.88C618.699 945.693 621.046 944.12 623.766 943.16C626.486 942.147 629.499 941.64 632.806 941.64C635.952 941.64 638.859 942.227 641.526 943.4C644.246 944.52 646.592 946.227 648.566 948.52C650.592 950.76 652.166 953.56 653.286 956.92C654.406 960.227 654.966 964.04 654.966 968.36C654.966 972.787 654.406 976.68 653.286 980.04C652.166 983.4 650.592 986.2 648.566 988.44C646.539 990.68 644.192 992.36 641.526 993.48C638.859 994.6 635.952 995.16 632.806 995.16ZM632.726 986.28C635.659 986.28 638.032 985.507 639.846 983.96C641.712 982.413 643.072 980.28 643.926 977.56C644.832 974.787 645.286 971.64 645.286 968.12C645.286 964.707 644.832 961.693 643.926 959.08C643.072 956.413 641.712 954.333 639.846 952.84C638.032 951.293 635.659 950.547 632.726 950.6C629.846 950.547 627.472 951.293 625.606 952.84C623.792 954.387 622.432 956.493 621.526 959.16C620.672 961.827 620.246 964.893 620.246 968.36C620.246 971.773 620.672 974.84 621.526 977.56C622.432 980.28 623.792 982.413 625.606 983.96C627.472 985.507 629.846 986.28 632.726 986.28ZM662.086 995C665.392 991.64 668.592 988.387 671.686 985.24C674.779 982.093 677.552 979.053 680.006 976.12C682.459 973.133 684.379 970.28 685.766 967.56C687.206 964.787 687.926 962.093 687.926 959.48C687.926 957.987 687.686 956.68 687.206 955.56C686.726 954.44 686.059 953.507 685.206 952.76C684.352 952.013 683.366 951.453 682.246 951.08C681.179 950.707 680.006 950.52 678.726 950.52C677.179 950.52 675.846 950.76 674.726 951.24C673.606 951.72 672.699 952.36 672.006 953.16C671.312 953.907 670.779 954.733 670.406 955.64C670.032 956.493 669.846 957.373 669.846 958.28C669.846 960.04 670.112 961.613 670.646 963C671.232 964.333 672.006 965.507 672.966 966.52L667.286 971.72C665.899 970.973 664.726 969.8 663.766 968.2C662.806 966.6 662.059 964.92 661.526 963.16C661.046 961.4 660.806 959.853 660.806 958.52C660.806 955.587 661.552 952.84 663.046 950.28C664.592 947.72 666.806 945.64 669.686 944.04C672.619 942.387 676.166 941.56 680.326 941.56C683.792 941.56 686.806 942.36 689.366 943.96C691.979 945.507 694.006 947.587 695.446 950.2C696.886 952.813 697.606 955.64 697.606 958.68C697.606 961.24 697.126 963.747 696.166 966.2C695.259 968.6 694.006 971 692.406 973.4C690.806 975.747 689.019 978.067 687.046 980.36C685.126 982.653 683.179 984.973 681.206 987.32L677.046 986.04H698.886V995H662.086ZM738.131 942.2L724.851 965L719.571 962.36C720.211 962.04 720.905 961.8 721.651 961.64C722.398 961.48 723.118 961.4 723.811 961.4C725.785 961.347 727.705 961.587 729.571 962.12C731.438 962.6 733.118 963.453 734.611 964.68C736.105 965.907 737.305 967.56 738.211 969.64C739.118 971.72 739.571 974.307 739.571 977.4C739.571 981.187 738.691 984.44 736.931 987.16C735.225 989.88 732.931 991.987 730.051 993.48C727.225 994.92 724.131 995.64 720.771 995.64C718.211 995.64 715.571 995.107 712.851 994.04C710.185 992.973 708.025 991.56 706.371 989.8L711.091 982.12C711.998 983.24 713.305 984.28 715.011 985.24C716.771 986.2 718.611 986.68 720.531 986.68C722.185 986.68 723.705 986.307 725.091 985.56C726.531 984.76 727.705 983.64 728.611 982.2C729.518 980.707 729.971 978.92 729.971 976.84C729.971 974.12 729.171 971.96 727.571 970.36C725.971 968.707 723.758 967.88 720.931 967.88C719.385 967.88 718.131 967.987 717.171 968.2C716.211 968.36 715.305 968.573 714.451 968.84L714.211 968.6L725.411 949.96L728.211 951.16H709.971V942.2H738.131Z" fill="white"/>
</g>
<path d="M467 448L640.205 548V748L467 848L293.795 748V548L467 448Z" fill="white"/>
<mask id="mask2_109_3056" style="mask-type:alpha" maskUnits="userSpaceOnUse" x="293" y="448" width="348" height="400">
<path d="M467 448L640.205 548V748L467 848L293.795 748V548L467 448Z" fill="#010101"/>
</mask>
<g mask="url(#mask2_109_3056)">
<line x1="271" y1="486.75" x2="721" y2="486.75" stroke="#103164" stroke-opacity="0.29" stroke-width="7"/>
<line x1="271" y1="543" x2="721" y2="543" stroke="#103164" stroke-opacity="0.29" stroke-width="7"/>
<line x1="271" y1="599.25" x2="721" y2="599.25" stroke="#103164" stroke-opacity="0.29" stroke-width="7"/>
<line x1="271" y1="655.5" x2="721" y2="655.5" stroke="#103164" stroke-opacity="0.29" stroke-width="7"/>
<line x1="271" y1="711.75" x2="721" y2="711.75" stroke="#103164" stroke-opacity="0.29" stroke-width="7"/>
<line x1="271" y1="768" x2="721" y2="768" stroke="#103164" stroke-opacity="0.29" stroke-width="7"/>
<line x1="329.625" y1="434" x2="329.625" y2="884" stroke="#103164" stroke-opacity="0.29" stroke-width="7"/>
<line x1="381.125" y1="884" x2="381.125" y2="434" stroke="#103164" stroke-opacity="0.29" stroke-width="7"/>
<line x1="437.375" y1="884" x2="437.375" y2="434" stroke="#103164" stroke-opacity="0.29" stroke-width="7"/>
<line x1="493.625" y1="884" x2="493.625" y2="434" stroke="#103164" stroke-opacity="0.29" stroke-width="7"/>
<line x1="549.875" y1="884" x2="549.875" y2="434" stroke="#103164" stroke-opacity="0.29" stroke-width="7"/>
<line x1="606.125" y1="881" x2="606.125" y2="431" stroke="#103164" stroke-opacity="0.29" stroke-width="7"/>
<path d="M467 448L640.205 548V748L467 848L293.795 748V548L467 448Z" fill="url(#paint2_radial_109_3056)"/>
</g>
<g filter="url(#filter2_d_109_3056)">
<path d="M433.265 687.818L465.958 655.041L514.083 703.083L466 751.166L433.252 718.418" stroke="white" stroke-width="8"/>
<path d="M391.46 585.39L392.16 593.79L391.88 592.6C392.72 590.827 393.863 589.31 395.31 588.05C396.803 586.743 398.32 585.763 399.86 585.11C401.4 584.41 402.66 584.06 403.64 584.06L403.29 591.9C401.05 591.713 399.09 592.133 397.41 593.16C395.777 594.14 394.493 595.447 393.56 597.08C392.673 598.713 392.23 600.44 392.23 602.26V615H384.39V585.39H391.46ZM424.507 615.77C421.007 615.77 418.02 615.093 415.547 613.74C413.073 612.387 411.183 610.52 409.877 608.14C408.57 605.713 407.917 602.983 407.917 599.95C407.917 596.963 408.663 594.28 410.157 591.9C411.65 589.52 413.657 587.63 416.177 586.23C418.743 584.783 421.567 584.06 424.647 584.06C428.707 584.06 432.043 585.25 434.657 587.63C437.317 589.963 439.09 593.277 439.977 597.57L416.107 605.62L414.287 601.21L432.907 594.56L431.297 595.47C430.783 594.07 429.943 592.857 428.777 591.83C427.657 590.803 426.07 590.29 424.017 590.29C422.383 590.29 420.937 590.687 419.677 591.48C418.417 592.227 417.413 593.3 416.667 594.7C415.967 596.053 415.617 597.663 415.617 599.53C415.617 601.443 416.013 603.123 416.807 604.57C417.6 606.017 418.673 607.137 420.027 607.93C421.38 608.677 422.92 609.05 424.647 609.05C425.86 609.05 427.027 608.84 428.147 608.42C429.267 608 430.317 607.44 431.297 606.74L434.867 612.55C433.327 613.53 431.623 614.323 429.757 614.93C427.937 615.49 426.187 615.77 424.507 615.77ZM460.151 615.77C457.351 615.77 454.807 615.187 452.521 614.02C450.281 612.853 448.507 611.127 447.201 608.84C445.894 606.507 445.241 603.637 445.241 600.23C445.241 596.87 445.917 594 447.271 591.62C448.671 589.193 450.491 587.327 452.731 586.02C455.017 584.713 457.491 584.06 460.151 584.06C462.997 584.06 465.284 584.62 467.011 585.74C468.784 586.86 470.161 588.19 471.141 589.73L470.721 590.85L471.491 585.39H478.701V615H470.861V607.79L471.631 609.68C471.444 609.96 471.071 610.427 470.511 611.08C469.951 611.687 469.181 612.363 468.201 613.11C467.221 613.857 466.054 614.487 464.701 615C463.394 615.513 461.877 615.77 460.151 615.77ZM462.321 609.33C463.721 609.33 464.981 609.073 466.101 608.56C467.267 608.047 468.247 607.323 469.041 606.39C469.881 605.457 470.487 604.337 470.861 603.03V596.59C470.487 595.377 469.881 594.327 469.041 593.44C468.201 592.507 467.174 591.783 465.961 591.27C464.794 590.757 463.487 590.5 462.041 590.5C460.454 590.5 458.984 590.897 457.631 591.69C456.277 592.483 455.181 593.58 454.341 594.98C453.547 596.38 453.151 597.99 453.151 599.81C453.151 601.583 453.571 603.193 454.411 604.64C455.251 606.087 456.371 607.23 457.771 608.07C459.171 608.91 460.687 609.33 462.321 609.33ZM501.637 615.77C498.837 615.77 496.34 615.117 494.147 613.81C491.953 612.503 490.227 610.637 488.967 608.21C487.707 605.783 487.077 602.96 487.077 599.74C487.077 596.427 487.753 593.603 489.107 591.27C490.46 588.937 492.303 587.163 494.637 585.95C497.017 584.69 499.677 584.06 502.617 584.06C504.763 584.06 506.817 584.48 508.777 585.32C510.737 586.113 512.3 587.28 513.467 588.82L513.327 591.48V560.4H521.097V615H513.257V608.35L514.027 610.24C512.533 611.827 510.737 613.157 508.637 614.23C506.583 615.257 504.25 615.77 501.637 615.77ZM504.157 609.12C505.697 609.12 507.05 608.863 508.217 608.35C509.43 607.837 510.457 607.113 511.297 606.18C512.183 605.2 512.837 604.057 513.257 602.75V596.45C512.883 595.237 512.253 594.163 511.367 593.23C510.527 592.297 509.477 591.573 508.217 591.06C506.957 590.547 505.603 590.29 504.157 590.29C502.477 590.29 500.937 590.687 499.537 591.48C498.183 592.273 497.087 593.37 496.247 594.77C495.407 596.17 494.987 597.78 494.987 599.6C494.987 601.373 495.407 602.983 496.247 604.43C497.087 605.877 498.207 607.02 499.607 607.86C501.007 608.7 502.523 609.12 504.157 609.12ZM538.98 585.39L539.68 593.79L539.4 592.6C540.24 590.827 541.383 589.31 542.83 588.05C544.323 586.743 545.84 585.763 547.38 585.11C548.92 584.41 550.18 584.06 551.16 584.06L550.81 591.9C548.57 591.713 546.61 592.133 544.93 593.16C543.296 594.14 542.013 595.447 541.08 597.08C540.193 598.713 539.75 600.44 539.75 602.26V615H531.91V585.39H538.98Z" fill="white"/>
<path d="M412 703H474" stroke="white" stroke-width="8" stroke-linecap="square"/>
<path d="M466 688L481.5 703.499L466 718.999" stroke="white" stroke-width="8" stroke-linecap="square"/>
</g>
<path d="M845 448L1018.21 548V748L845 848L671.795 748V548L845 448Z" fill="white"/>
<mask id="mask3_109_3056" style="mask-type:alpha" maskUnits="userSpaceOnUse" x="671" y="448" width="348" height="400">
<path d="M845 448L1018.21 548V748L845 848L671.795 748V548L845 448Z" fill="#010101"/>
</mask>
<g mask="url(#mask3_109_3056)">
<line x1="649" y1="486.75" x2="1099" y2="486.75" stroke="#103164" stroke-opacity="0.29" stroke-width="7"/>
<line x1="649" y1="543" x2="1099" y2="543" stroke="#103164" stroke-opacity="0.29" stroke-width="7"/>
<line x1="649" y1="599.25" x2="1099" y2="599.25" stroke="#103164" stroke-opacity="0.29" stroke-width="7"/>
<line x1="649" y1="655.5" x2="1099" y2="655.5" stroke="#103164" stroke-opacity="0.29" stroke-width="7"/>
<line x1="649" y1="711.75" x2="1099" y2="711.75" stroke="#103164" stroke-opacity="0.29" stroke-width="7"/>
<line x1="649" y1="768" x2="1099" y2="768" stroke="#103164" stroke-opacity="0.29" stroke-width="7"/>
<line x1="707.625" y1="434" x2="707.625" y2="884" stroke="#103164" stroke-opacity="0.29" stroke-width="7"/>
<line x1="759.125" y1="884" x2="759.125" y2="434" stroke="#103164" stroke-opacity="0.29" stroke-width="7"/>
<line x1="815.375" y1="884" x2="815.375" y2="434" stroke="#103164" stroke-opacity="0.29" stroke-width="7"/>
<line x1="871.625" y1="884" x2="871.625" y2="434" stroke="#103164" stroke-opacity="0.29" stroke-width="7"/>
<line x1="927.875" y1="884" x2="927.875" y2="434" stroke="#103164" stroke-opacity="0.29" stroke-width="7"/>
<line x1="984.125" y1="884" x2="984.125" y2="434" stroke="#103164" stroke-opacity="0.29" stroke-width="7"/>
<path d="M845 448L1018.21 548V748L845 848L671.795 748V548L845 448Z" fill="url(#paint3_radial_109_3056)"/>
</g>
<g filter="url(#filter3_d_109_3056)">
<path d="M837 687V705H900" stroke="white" stroke-width="8"/>
</g>
<g filter="url(#filter4_d_109_3056)">
<path d="M837 646H896V705H837V646Z" stroke="white" stroke-width="8"/>
<path d="M807 683H866V742H807V683Z" stroke="white" stroke-width="8"/>
<path d="M725.235 591.735H731.395V615H725.235V591.735ZM724.96 583.43C724.96 582.477 725.327 581.688 726.06 581.065C726.83 580.442 727.655 580.13 728.535 580.13C729.415 580.13 730.203 580.442 730.9 581.065C731.633 581.688 732 582.477 732 583.43C732 584.383 731.633 585.172 730.9 585.795C730.203 586.382 729.415 586.675 728.535 586.675C727.655 586.675 726.83 586.363 726.06 585.74C725.327 585.117 724.96 584.347 724.96 583.43ZM745.399 591.735L745.949 596.74L745.729 596.08C746.536 594.467 747.728 593.183 749.304 592.23C750.918 591.24 752.824 590.745 755.024 590.745C757.224 590.745 759.039 591.387 760.469 592.67C761.899 593.953 762.633 595.64 762.669 597.73V615H756.509V599.93C756.473 598.757 756.143 597.822 755.519 597.125C754.896 596.392 753.906 596.007 752.549 595.97C751.303 595.97 750.184 596.355 749.194 597.125C748.204 597.858 747.416 598.885 746.829 600.205C746.279 601.488 746.004 602.973 746.004 604.66V615H739.844V591.735H745.399ZM773.358 581.505H779.573V591.735H785.623V596.575H779.573V615H773.358V596.575H769.398V591.735H773.358V581.505ZM802.785 615.605C800.035 615.605 797.689 615.073 795.745 614.01C793.802 612.947 792.317 611.48 791.29 609.61C790.264 607.703 789.75 605.558 789.75 603.175C789.75 600.828 790.337 598.72 791.51 596.85C792.684 594.98 794.26 593.495 796.24 592.395C798.257 591.258 800.475 590.69 802.895 590.69C806.085 590.69 808.707 591.625 810.76 593.495C812.85 595.328 814.244 597.932 814.94 601.305L796.185 607.63L794.755 604.165L809.385 598.94L808.12 599.655C807.717 598.555 807.057 597.602 806.14 596.795C805.26 595.988 804.014 595.585 802.4 595.585C801.117 595.585 799.98 595.897 798.99 596.52C798 597.107 797.212 597.95 796.625 599.05C796.075 600.113 795.8 601.378 795.8 602.845C795.8 604.348 796.112 605.668 796.735 606.805C797.359 607.942 798.202 608.822 799.265 609.445C800.329 610.032 801.539 610.325 802.895 610.325C803.849 610.325 804.765 610.16 805.645 609.83C806.525 609.5 807.35 609.06 808.12 608.51L810.925 613.075C809.715 613.845 808.377 614.468 806.91 614.945C805.48 615.385 804.105 615.605 802.785 615.605ZM826.557 591.735L827.107 598.335L826.887 597.4C827.547 596.007 828.445 594.815 829.582 593.825C830.755 592.798 831.947 592.028 833.157 591.515C834.367 590.965 835.357 590.69 836.127 590.69L835.852 596.85C834.092 596.703 832.552 597.033 831.232 597.84C829.948 598.61 828.94 599.637 828.207 600.92C827.51 602.203 827.162 603.56 827.162 604.99V615H821.002V591.735H826.557ZM844.467 615V597.125H840.507V591.68H844.467V582.55C844.467 579.323 845.274 576.793 846.887 574.96C848.537 573.09 850.921 572.155 854.037 572.155C854.917 572.155 855.889 572.283 856.952 572.54C858.016 572.797 858.951 573.2 859.757 573.75L857.172 578.205C856.842 577.838 856.457 577.582 856.017 577.435C855.577 577.288 855.137 577.215 854.697 577.215C853.451 577.215 852.461 577.637 851.727 578.48C850.994 579.323 850.627 580.735 850.627 582.715V591.68H857.887V597.125H850.627V615H844.467ZM872.794 615.605C870.594 615.605 868.595 615.147 866.799 614.23C865.039 613.313 863.645 611.957 862.619 610.16C861.592 608.327 861.079 606.072 861.079 603.395C861.079 600.755 861.61 598.5 862.674 596.63C863.774 594.723 865.204 593.257 866.964 592.23C868.76 591.203 870.704 590.69 872.794 590.69C875.03 590.69 876.827 591.13 878.184 592.01C879.577 592.89 880.659 593.935 881.429 595.145L881.099 596.025L881.704 591.735H887.369V615H881.209V609.335L881.814 610.82C881.667 611.04 881.374 611.407 880.934 611.92C880.494 612.397 879.889 612.928 879.119 613.515C878.349 614.102 877.432 614.597 876.369 615C875.342 615.403 874.15 615.605 872.794 615.605ZM874.499 610.545C875.599 610.545 876.589 610.343 877.469 609.94C878.385 609.537 879.155 608.968 879.779 608.235C880.439 607.502 880.915 606.622 881.209 605.595V600.535C880.915 599.582 880.439 598.757 879.779 598.06C879.119 597.327 878.312 596.758 877.359 596.355C876.442 595.952 875.415 595.75 874.279 595.75C873.032 595.75 871.877 596.062 870.814 596.685C869.75 597.308 868.889 598.17 868.229 599.27C867.605 600.37 867.294 601.635 867.294 603.065C867.294 604.458 867.624 605.723 868.284 606.86C868.944 607.997 869.824 608.895 870.924 609.555C872.024 610.215 873.215 610.545 874.499 610.545ZM915.125 612.855C914.098 613.698 912.833 614.377 911.33 614.89C909.863 615.367 908.378 615.605 906.875 615.605C904.308 615.605 902.053 615.11 900.11 614.12C898.166 613.093 896.645 611.682 895.545 609.885C894.481 608.052 893.95 605.87 893.95 603.34C893.95 600.81 894.518 598.628 895.655 596.795C896.828 594.962 898.35 593.568 900.22 592.615C902.126 591.625 904.143 591.13 906.27 591.13C908.213 591.13 909.936 591.405 911.44 591.955C912.943 592.468 914.245 593.183 915.345 594.1L912.265 598.115C911.678 597.638 910.908 597.198 909.955 596.795C909.038 596.355 907.993 596.135 906.82 596.135C905.573 596.135 904.436 596.447 903.41 597.07C902.42 597.693 901.613 598.555 900.99 599.655C900.403 600.718 900.11 601.947 900.11 603.34C900.11 604.66 900.421 605.87 901.045 606.97C901.668 608.07 902.53 608.95 903.63 609.61C904.73 610.233 905.995 610.545 907.425 610.545C908.341 610.545 909.185 610.417 909.955 610.16C910.761 609.867 911.458 609.482 912.045 609.005L915.125 612.855ZM932.551 615.605C929.801 615.605 927.454 615.073 925.511 614.01C923.568 612.947 922.083 611.48 921.056 609.61C920.029 607.703 919.516 605.558 919.516 603.175C919.516 600.828 920.103 598.72 921.276 596.85C922.449 594.98 924.026 593.495 926.006 592.395C928.023 591.258 930.241 590.69 932.661 590.69C935.851 590.69 938.473 591.625 940.526 593.495C942.616 595.328 944.009 597.932 944.706 601.305L925.951 607.63L924.521 604.165L939.151 598.94L937.886 599.655C937.483 598.555 936.823 597.602 935.906 596.795C935.026 595.988 933.779 595.585 932.166 595.585C930.883 595.585 929.746 595.897 928.756 596.52C927.766 597.107 926.978 597.95 926.391 599.05C925.841 600.113 925.566 601.378 925.566 602.845C925.566 604.348 925.878 605.668 926.501 606.805C927.124 607.942 927.968 608.822 929.031 609.445C930.094 610.032 931.304 610.325 932.661 610.325C933.614 610.325 934.531 610.16 935.411 609.83C936.291 609.5 937.116 609.06 937.886 608.51L940.691 613.075C939.481 613.845 938.143 614.468 936.676 614.945C935.246 615.385 933.871 615.605 932.551 615.605ZM956.322 591.735L956.872 598.335L956.652 597.4C957.312 596.007 958.211 594.815 959.347 593.825C960.521 592.798 961.712 592.028 962.922 591.515C964.132 590.965 965.122 590.69 965.892 590.69L965.617 596.85C963.857 596.703 962.317 597.033 960.997 597.84C959.714 598.61 958.706 599.637 957.972 600.92C957.276 602.203 956.927 603.56 956.927 604.99V615H950.767V591.735H956.322Z" fill="white"/>
</g>
<g filter="url(#filter5_d_109_3056)">
<path d="M837 687V705H900" stroke="white" stroke-width="8"/>
</g>
<path d="M282 775L455.205 875V1075L282 1175L108.795 1075V875L282 775Z" fill="white"/>
<mask id="mask4_109_3056" style="mask-type:alpha" maskUnits="userSpaceOnUse" x="108" y="775" width="348" height="400">
<path d="M282 775L455.205 875V1075L282 1175L108.795 1075V875L282 775Z" fill="#010101"/>
</mask>
<g mask="url(#mask4_109_3056)">
<line x1="86" y1="813.75" x2="486" y2="813.75" stroke="#103164" stroke-opacity="0.29" stroke-width="7"/>
<line x1="86" y1="870" x2="486" y2="870" stroke="#103164" stroke-opacity="0.29" stroke-width="7"/>
<line x1="86" y1="926.25" x2="486" y2="926.25" stroke="#103164" stroke-opacity="0.29" stroke-width="7"/>
<line x1="86" y1="982.5" x2="486" y2="982.5" stroke="#103164" stroke-opacity="0.29" stroke-width="7"/>
<line x1="86" y1="1038.75" x2="486" y2="1038.75" stroke="#103164" stroke-opacity="0.29" stroke-width="7"/>
<line x1="86" y1="1095" x2="486" y2="1095" stroke="#103164" stroke-opacity="0.29" stroke-width="7"/>
<line x1="144.625" y1="761" x2="144.625" y2="1211" stroke="#103164" stroke-opacity="0.29" stroke-width="7"/>
<line x1="196.125" y1="1211" x2="196.125" y2="761" stroke="#103164" stroke-opacity="0.29" stroke-width="7"/>
<line x1="252.375" y1="1211" x2="252.375" y2="761" stroke="#103164" stroke-opacity="0.29" stroke-width="7"/>
<line x1="308.625" y1="1211" x2="308.625" y2="761" stroke="#103164" stroke-opacity="0.29" stroke-width="7"/>
<line x1="364.875" y1="1211" x2="364.875" y2="761" stroke="#103164" stroke-opacity="0.29" stroke-width="7"/>
<line x1="421.125" y1="1211" x2="421.125" y2="761" stroke="#103164" stroke-opacity="0.29" stroke-width="7"/>
<path d="M282 775L455.205 875V1075L282 1175L108.795 1075V875L282 775Z" fill="url(#paint4_radial_109_3056)"/>
</g>
<g filter="url(#filter6_d_109_3056)">
<path d="M222.19 899.37H230.1V912.39H237.8V918.55H230.1V942H222.19V918.55H217.15V912.39H222.19V899.37ZM245.503 912.39H253.343V942H245.503V912.39ZM245.153 901.82C245.153 900.607 245.62 899.603 246.553 898.81C247.533 898.017 248.583 897.62 249.703 897.62C250.823 897.62 251.827 898.017 252.713 898.81C253.647 899.603 254.113 900.607 254.113 901.82C254.113 903.033 253.647 904.037 252.713 904.83C251.827 905.577 250.823 905.95 249.703 905.95C248.583 905.95 247.533 905.553 246.553 904.76C245.62 903.967 245.153 902.987 245.153 901.82ZM276.207 942.77C273.407 942.77 270.91 942.117 268.717 940.81C266.524 939.503 264.797 937.637 263.537 935.21C262.277 932.783 261.647 929.96 261.647 926.74C261.647 923.427 262.324 920.603 263.677 918.27C265.03 915.937 266.874 914.163 269.207 912.95C271.587 911.69 274.247 911.06 277.187 911.06C279.334 911.06 281.387 911.48 283.347 912.32C285.307 913.113 286.87 914.28 288.037 915.82L287.897 918.48V887.4H295.667V942H287.827V935.35L288.597 937.24C287.104 938.827 285.307 940.157 283.207 941.23C281.154 942.257 278.82 942.77 276.207 942.77ZM278.727 936.12C280.267 936.12 281.62 935.863 282.787 935.35C284 934.837 285.027 934.113 285.867 933.18C286.754 932.2 287.407 931.057 287.827 929.75V923.45C287.454 922.237 286.824 921.163 285.937 920.23C285.097 919.297 284.047 918.573 282.787 918.06C281.527 917.547 280.174 917.29 278.727 917.29C277.047 917.29 275.507 917.687 274.107 918.48C272.754 919.273 271.657 920.37 270.817 921.77C269.977 923.17 269.557 924.78 269.557 926.6C269.557 928.373 269.977 929.983 270.817 931.43C271.657 932.877 272.777 934.02 274.177 934.86C275.577 935.7 277.094 936.12 278.727 936.12ZM308.93 956.21L328.6 912.39H335.74L316.63 956.21H308.93ZM316.56 942.21L302.14 912.39H310.96L322.58 938.22L316.56 942.21ZM349.233 912.39L349.933 920.79L349.653 919.6C350.493 917.827 351.637 916.31 353.083 915.05C354.577 913.743 356.093 912.763 357.633 912.11C359.173 911.41 360.433 911.06 361.413 911.06L361.063 918.9C358.823 918.713 356.863 919.133 355.183 920.16C353.55 921.14 352.267 922.447 351.333 924.08C350.447 925.713 350.003 927.44 350.003 929.26V942H342.163V912.39H349.233Z" fill="white"/>
<path d="M244 970H341.5" stroke="white" stroke-width="8" stroke-linecap="square"/>
<path d="M338 959L348.5 969.5L338 980" stroke="white" stroke-width="8" stroke-linecap="square"/>
<path d="M221.5 993V1056" stroke="white" stroke-width="8" stroke-linecap="square"/>
<path d="M232 1053L221.5 1063.5L211 1053" stroke="white" stroke-width="8" stroke-linecap="square"/>
<rect x="240" y="989" width="26" height="16" fill="white"/>
<rect x="240" y="1032" width="26" height="16" fill="white"/>
<rect x="305" y="989" width="27" height="16" fill="white"/>
<rect x="305" y="1032" width="27" height="16" fill="white"/>
<rect x="240" y="1012" width="26" height="14" fill="white"/>
<rect x="305" y="1012" width="27" height="14" fill="white"/>
<rect x="272" y="989" width="27" height="16" fill="white"/>
<rect x="272" y="1032" width="27" height="16" fill="white"/>
<rect x="272" y="1012" width="27" height="14" fill="white"/>
</g>
<path d="M1030 775L1203.21 875V1075L1030 1175L856.795 1075V875L1030 775Z" fill="white"/>
<mask id="mask5_109_3056" style="mask-type:alpha" maskUnits="userSpaceOnUse" x="856" y="775" width="348" height="400">
<path d="M1030 775L1203.21 875V1075L1030 1175L856.795 1075V875L1030 775Z" fill="#010101"/>
</mask>
<g mask="url(#mask5_109_3056)">
<line x1="834" y1="813.75" x2="1284" y2="813.75" stroke="#103164" stroke-opacity="0.29" stroke-width="7"/>
<line x1="834" y1="870" x2="1284" y2="870" stroke="#103164" stroke-opacity="0.29" stroke-width="7"/>
<line x1="834" y1="926.25" x2="1284" y2="926.25" stroke="#103164" stroke-opacity="0.29" stroke-width="7"/>
<line x1="834" y1="982.5" x2="1284" y2="982.5" stroke="#103164" stroke-opacity="0.29" stroke-width="7"/>
<line x1="834" y1="1038.75" x2="1284" y2="1038.75" stroke="#103164" stroke-opacity="0.29" stroke-width="7"/>
<line x1="834" y1="1095" x2="1284" y2="1095" stroke="#103164" stroke-opacity="0.29" stroke-width="7"/>
<line x1="892.625" y1="761" x2="892.625" y2="1211" stroke="#103164" stroke-opacity="0.29" stroke-width="7"/>
<line x1="944.125" y1="1211" x2="944.125" y2="761" stroke="#103164" stroke-opacity="0.29" stroke-width="7"/>
<line x1="1000.38" y1="1211" x2="1000.38" y2="761" stroke="#103164" stroke-opacity="0.29" stroke-width="7"/>
<line x1="1056.62" y1="1211" x2="1056.62" y2="761" stroke="#103164" stroke-opacity="0.29" stroke-width="7"/>
<line x1="1112.88" y1="1211" x2="1112.88" y2="761" stroke="#103164" stroke-opacity="0.29" stroke-width="7"/>
<line x1="1169.12" y1="1211" x2="1169.12" y2="761" stroke="#103164" stroke-opacity="0.29" stroke-width="7"/>
<path d="M1030 775L1203.21 875V1075L1030 1175L856.795 1075V875L1030 775Z" fill="url(#paint5_radial_109_3056)"/>
</g>
<g filter="url(#filter7_d_109_3056)">
<path d="M948.39 940V885.4H956.09V916.9L955.95 915.71C956.977 913.797 958.493 912.233 960.5 911.02C962.507 909.76 964.91 909.13 967.71 909.13C970.51 909.13 972.82 909.947 974.64 911.58C976.46 913.213 977.393 915.36 977.44 918.02V940H969.6V920.82C969.553 919.327 969.133 918.137 968.34 917.25C967.547 916.317 966.287 915.827 964.56 915.78C962.973 915.78 961.55 916.27 960.29 917.25C959.03 918.23 958.027 919.56 957.28 921.24C956.58 922.873 956.23 924.74 956.23 926.84V940H948.39ZM1002.38 940.77C998.884 940.77 995.897 940.093 993.424 938.74C990.95 937.387 989.06 935.52 987.754 933.14C986.447 930.713 985.794 927.983 985.794 924.95C985.794 921.963 986.54 919.28 988.034 916.9C989.527 914.52 991.534 912.63 994.054 911.23C996.62 909.783 999.444 909.06 1002.52 909.06C1006.58 909.06 1009.92 910.25 1012.53 912.63C1015.19 914.963 1016.97 918.277 1017.85 922.57L993.984 930.62L992.164 926.21L1010.78 919.56L1009.17 920.47C1008.66 919.07 1007.82 917.857 1006.65 916.83C1005.53 915.803 1003.95 915.29 1001.89 915.29C1000.26 915.29 998.814 915.687 997.554 916.48C996.294 917.227 995.29 918.3 994.544 919.7C993.844 921.053 993.494 922.663 993.494 924.53C993.494 926.443 993.89 928.123 994.684 929.57C995.477 931.017 996.55 932.137 997.904 932.93C999.257 933.677 1000.8 934.05 1002.52 934.05C1003.74 934.05 1004.9 933.84 1006.02 933.42C1007.14 933 1008.19 932.44 1009.17 931.74L1012.74 937.55C1011.2 938.53 1009.5 939.323 1007.63 939.93C1005.81 940.49 1004.06 940.77 1002.38 940.77ZM1025.57 885.4H1033.41V940H1025.57V885.4ZM1062.15 940.77C1060.1 940.77 1058.11 940.327 1056.2 939.44C1054.29 938.553 1052.75 937.34 1051.58 935.8L1052 933.42V954.21H1044.16V909.83H1050.95L1052 916.69L1051.3 914.59C1052.75 913.003 1054.5 911.697 1056.55 910.67C1058.65 909.597 1061.01 909.06 1063.62 909.06C1066.42 909.06 1068.92 909.713 1071.11 911.02C1073.3 912.327 1075.03 914.193 1076.29 916.62C1077.6 919 1078.25 921.823 1078.25 925.09C1078.25 928.357 1077.55 931.157 1076.15 933.49C1074.75 935.823 1072.84 937.62 1070.41 938.88C1067.98 940.14 1065.23 940.77 1062.15 940.77ZM1060.61 934.54C1062.34 934.54 1063.92 934.143 1065.37 933.35C1066.86 932.557 1068.05 931.46 1068.94 930.06C1069.83 928.613 1070.27 927.003 1070.27 925.23C1070.27 923.363 1069.85 921.73 1069.01 920.33C1068.22 918.883 1067.12 917.763 1065.72 916.97C1064.37 916.13 1062.85 915.71 1061.17 915.71C1059.63 915.71 1058.25 915.967 1057.04 916.48C1055.83 916.993 1054.8 917.74 1053.96 918.72C1053.12 919.653 1052.47 920.773 1052 922.08V928.03C1052.33 929.29 1052.89 930.41 1053.68 931.39C1054.47 932.37 1055.48 933.14 1056.69 933.7C1057.9 934.26 1059.21 934.54 1060.61 934.54ZM1093.61 910.39L1094.31 918.79L1094.03 917.6C1094.87 915.827 1096.02 914.31 1097.46 913.05C1098.96 911.743 1100.47 910.763 1102.01 910.11C1103.55 909.41 1104.81 909.06 1105.79 909.06L1105.44 916.9C1103.2 916.713 1101.24 917.133 1099.56 918.16C1097.93 919.14 1096.65 920.447 1095.71 922.08C1094.83 923.713 1094.38 925.44 1094.38 927.26V940H1086.54V910.39H1093.61Z" fill="white"/>
<path d="M1094 973H1045V1023H1094" stroke="white" stroke-width="8"/>
<path d="M998.5 1018H975V1050H1011V1037.5" stroke="white" stroke-width="8"/>
<path d="M1007.56 1026.61L1025.5 1016.5" stroke="white" stroke-width="7.75" stroke-linecap="square"/>
<path d="M1019 1010.1L1031.96 1012.31L1027.43 1024.41" stroke="white" stroke-width="7.75" stroke-linecap="square"/>
</g>
</g>
<defs>
<filter id="filter0_d_109_3056" x="530.12" y="281.76" width="245.676" height="67.6807" filterUnits="userSpaceOnUse" color-interpolation-filters="sRGB">
<feFlood flood-opacity="0" result="BackgroundImageFix"/>
<feColorMatrix in="SourceAlpha" type="matrix" values="0 0 0 0 0 0 0 0 0 0 0 0 0 0 0 0 0 0 127 0" result="hardAlpha"/>
<feOffset dy="4"/>
<feGaussianBlur stdDeviation="2"/>
<feComposite in2="hardAlpha" operator="out"/>
<feColorMatrix type="matrix" values="0 0 0 0 0 0 0 0 0 0 0 0 0 0 0 0 0 0 0.75 0"/>
<feBlend mode="normal" in2="BackgroundImageFix" result="effect1_dropShadow_109_3056"/>
<feBlend mode="normal" in="SourceGraphic" in2="effect1_dropShadow_109_3056" result="shape"/>
</filter>
<filter id="filter1_d_109_3056" x="562.04" y="941.56" width="181.531" height="62.0801" filterUnits="userSpaceOnUse" color-interpolation-filters="sRGB">
<feFlood flood-opacity="0" result="BackgroundImageFix"/>
<feColorMatrix in="SourceAlpha" type="matrix" values="0 0 0 0 0 0 0 0 0 0 0 0 0 0 0 0 0 0 127 0" result="hardAlpha"/>
<feOffset dy="4"/>
<feGaussianBlur stdDeviation="2"/>
<feComposite in2="hardAlpha" operator="out"/>
<feColorMatrix type="matrix" values="0 0 0 0 0 0 0 0 0 0 0 0 0 0 0 0 0 0 0.75 0"/>
<feBlend mode="normal" in2="BackgroundImageFix" result="effect1_dropShadow_109_3056"/>
<feBlend mode="normal" in="SourceGraphic" in2="effect1_dropShadow_109_3056" result="shape"/>
</filter>
<filter id="filter2_d_109_3056" x="380.39" y="560.4" width="174.77" height="204.423" filterUnits="userSpaceOnUse" color-interpolation-filters="sRGB">
<feFlood flood-opacity="0" result="BackgroundImageFix"/>
<feColorMatrix in="SourceAlpha" type="matrix" values="0 0 0 0 0 0 0 0 0 0 0 0 0 0 0 0 0 0 127 0" result="hardAlpha"/>
<feOffset dy="4"/>
<feGaussianBlur stdDeviation="2"/>
<feComposite in2="hardAlpha" operator="out"/>
<feColorMatrix type="matrix" values="0 0 0 0 0 0 0 0 0 0 0 0 0 0 0 0 0 0 0.75 0"/>
<feBlend mode="normal" in2="BackgroundImageFix" result="effect1_dropShadow_109_3056"/>
<feBlend mode="normal" in="SourceGraphic" in2="effect1_dropShadow_109_3056" result="shape"/>
</filter>
<filter id="filter3_d_109_3056" x="829" y="687" width="75" height="30" filterUnits="userSpaceOnUse" color-interpolation-filters="sRGB">
<feFlood flood-opacity="0" result="BackgroundImageFix"/>
<feColorMatrix in="SourceAlpha" type="matrix" values="0 0 0 0 0 0 0 0 0 0 0 0 0 0 0 0 0 0 127 0" result="hardAlpha"/>
<feOffset dy="4"/>
<feGaussianBlur stdDeviation="2"/>
<feComposite in2="hardAlpha" operator="out"/>
<feColorMatrix type="matrix" values="0 0 0 0 0 0 0 0 0 0 0 0 0 0 0 0 0 0 0.5 0"/>
<feBlend mode="normal" in2="BackgroundImageFix" result="effect1_dropShadow_109_3056"/>
<feBlend mode="normal" in="SourceGraphic" in2="effect1_dropShadow_109_3056" result="shape"/>
</filter>
<filter id="filter4_d_109_3056" x="720.96" y="572.155" width="248.933" height="181.845" filterUnits="userSpaceOnUse" color-interpolation-filters="sRGB">
<feFlood flood-opacity="0" result="BackgroundImageFix"/>
<feColorMatrix in="SourceAlpha" type="matrix" values="0 0 0 0 0 0 0 0 0 0 0 0 0 0 0 0 0 0 127 0" result="hardAlpha"/>
<feOffset dy="4"/>
<feGaussianBlur stdDeviation="2"/>
<feComposite in2="hardAlpha" operator="out"/>
<feColorMatrix type="matrix" values="0 0 0 0 0 0 0 0 0 0 0 0 0 0 0 0 0 0 0.75 0"/>
<feBlend mode="normal" in2="BackgroundImageFix" result="effect1_dropShadow_109_3056"/>
<feBlend mode="normal" in="SourceGraphic" in2="effect1_dropShadow_109_3056" result="shape"/>
</filter>
<filter id="filter5_d_109_3056" x="829" y="687" width="75" height="30" filterUnits="userSpaceOnUse" color-interpolation-filters="sRGB">
<feFlood flood-opacity="0" result="BackgroundImageFix"/>
<feColorMatrix in="SourceAlpha" type="matrix" values="0 0 0 0 0 0 0 0 0 0 0 0 0 0 0 0 0 0 127 0" result="hardAlpha"/>
<feOffset dy="4"/>
<feGaussianBlur stdDeviation="2"/>
<feComposite in2="hardAlpha" operator="out"/>
<feColorMatrix type="matrix" values="0 0 0 0 0 0 0 0 0 0 0 0 0 0 0 0 0 0 0.5 0"/>
<feBlend mode="normal" in2="BackgroundImageFix" result="effect1_dropShadow_109_3056"/>
<feBlend mode="normal" in="SourceGraphic" in2="effect1_dropShadow_109_3056" result="shape"/>
</filter>
<filter id="filter6_d_109_3056" x="201.343" y="887.4" width="164.07" height="189.757" filterUnits="userSpaceOnUse" color-interpolation-filters="sRGB">
<feFlood flood-opacity="0" result="BackgroundImageFix"/>
<feColorMatrix in="SourceAlpha" type="matrix" values="0 0 0 0 0 0 0 0 0 0 0 0 0 0 0 0 0 0 127 0" result="hardAlpha"/>
<feOffset dy="4"/>
<feGaussianBlur stdDeviation="2"/>
<feComposite in2="hardAlpha" operator="out"/>
<feColorMatrix type="matrix" values="0 0 0 0 0 0 0 0 0 0 0 0 0 0 0 0 0 0 0.75 0"/>
<feBlend mode="normal" in2="BackgroundImageFix" result="effect1_dropShadow_109_3056"/>
<feBlend mode="normal" in="SourceGraphic" in2="effect1_dropShadow_109_3056" result="shape"/>
</filter>
<filter id="filter7_d_109_3056" x="944.39" y="885.4" width="165.404" height="176.6" filterUnits="userSpaceOnUse" color-interpolation-filters="sRGB">
<feFlood flood-opacity="0" result="BackgroundImageFix"/>
<feColorMatrix in="SourceAlpha" type="matrix" values="0 0 0 0 0 0 0 0 0 0 0 0 0 0 0 0 0 0 127 0" result="hardAlpha"/>
<feOffset dy="4"/>
<feGaussianBlur stdDeviation="2"/>
<feComposite in2="hardAlpha" operator="out"/>
<feColorMatrix type="matrix" values="0 0 0 0 0 0 0 0 0 0 0 0 0 0 0 0 0 0 0.75 0"/>
<feBlend mode="normal" in2="BackgroundImageFix" result="effect1_dropShadow_109_3056"/>
<feBlend mode="normal" in="SourceGraphic" in2="effect1_dropShadow_109_3056" result="shape"/>
</filter>
<radialGradient id="paint0_radial_109_3056" cx="0" cy="0" r="1" gradientUnits="userSpaceOnUse" gradientTransform="translate(653 205) rotate(90) scale(315)">
<stop stop-color="#4355A5" stop-opacity="0"/>
<stop offset="0.167525" stop-color="#4355A5" stop-opacity="0.268811"/>
<stop offset="0.816825" stop-color="#4355A5"/>
</radialGradient>
<radialGradient id="paint1_radial_109_3056" cx="0" cy="0" r="1" gradientUnits="userSpaceOnUse" gradientTransform="translate(653 860) rotate(90) scale(315)">
<stop stop-color="#4355A5" stop-opacity="0"/>
<stop offset="0.167525" stop-color="#4355A5" stop-opacity="0.268811"/>
<stop offset="0.816825" stop-color="#4355A5"/>
</radialGradient>
<radialGradient id="paint2_radial_109_3056" cx="0" cy="0" r="1" gradientUnits="userSpaceOnUse" gradientTransform="translate(467 533) rotate(90) scale(315)">
<stop stop-color="#4355A5" stop-opacity="0"/>
<stop offset="0.167525" stop-color="#4355A5" stop-opacity="0.268811"/>
<stop offset="0.816825" stop-color="#4355A5"/>
</radialGradient>
<radialGradient id="paint3_radial_109_3056" cx="0" cy="0" r="1" gradientUnits="userSpaceOnUse" gradientTransform="translate(845 533) rotate(90) scale(315)">
<stop stop-color="#4355A5" stop-opacity="0"/>
<stop offset="0.167525" stop-color="#4355A5" stop-opacity="0.268811"/>
<stop offset="0.816825" stop-color="#4355A5"/>
</radialGradient>
<radialGradient id="paint4_radial_109_3056" cx="0" cy="0" r="1" gradientUnits="userSpaceOnUse" gradientTransform="translate(282 860) rotate(90) scale(315)">
<stop stop-color="#4355A5" stop-opacity="0"/>
<stop offset="0.167525" stop-color="#4355A5" stop-opacity="0.268811"/>
<stop offset="0.816825" stop-color="#4355A5"/>
</radialGradient>
<radialGradient id="paint5_radial_109_3056" cx="0" cy="0" r="1" gradientUnits="userSpaceOnUse" gradientTransform="translate(1030 860) rotate(90) scale(315)">
<stop stop-color="#4355A5" stop-opacity="0"/>
<stop offset="0.167525" stop-color="#4355A5" stop-opacity="0.268811"/>
<stop offset="0.816825" stop-color="#4355A5"/>
</radialGradient>
<clipPath id="clip0_109_3056">
<rect width="1312" height="1296" fill="white"/>
</clipPath>
</defs>
</svg>
